<svg width="96" height="96" viewBox="0 0 96 96" fill="none" xmlns="http://www.w3.org/2000/svg"><g clip-path="url(#a)"><g clip-path="url(#b)"><path fill="#000" d="M0 0h96v96H0z"/><path stroke="#3E3E3E" stroke-width=".147" d="M35.486 2.178h4.265v4.265h-4.265zM35.486 14.974h4.265v4.265h-4.265zM35.486 27.77h4.265v4.265h-4.265zM35.486 40.566h4.265v4.265h-4.265zM35.486 53.362h4.265v4.265h-4.265zM35.486 66.158h4.265v4.265h-4.265zM35.486 78.954h4.265v4.265h-4.265zM35.486 6.443h4.265v4.265h-4.265zM35.486 19.239h4.265v4.265h-4.265zM35.486 32.035h4.265V36.3h-4.265zM35.486 44.831h4.265v4.265h-4.265zM35.486 57.627h4.265v4.265h-4.265zM35.486 70.424h4.265v4.265h-4.265zM35.486 83.219h4.265v4.265h-4.265zM35.486-2.088h4.265v4.265h-4.265zM35.486 10.708h4.265v4.265h-4.265zM35.486 23.505h4.265v4.265h-4.265zM35.486 36.301h4.265v4.265h-4.265z"/><path stroke="#3E3E3E" stroke-width=".147" d="M35.486 49.096h4.265v4.265h-4.265zM35.486 61.893h4.265v4.265h-4.265zM35.486 74.689h4.265v4.265h-4.265zM35.486 87.485h4.265v4.265h-4.265zM18.424 2.178h4.265v4.265h-4.265zM18.424 14.974h4.265v4.265h-4.265zM18.424 27.77h4.265v4.265h-4.265zM18.424 40.566h4.265v4.265h-4.265zM18.424 53.362h4.265v4.265h-4.265zM18.424 66.158h4.265v4.265h-4.265zM18.424 78.954h4.265v4.265h-4.265zM18.424 6.443h4.265v4.265h-4.265zM18.424 19.239h4.265v4.265h-4.265zM18.424 32.035h4.265V36.3h-4.265zM18.424 44.831h4.265v4.265h-4.265zM18.424 57.627h4.265v4.265h-4.265zM18.424 70.424h4.265v4.265h-4.265zM18.424 83.219h4.265v4.265h-4.265zM18.424-2.088h4.265v4.265h-4.265zM18.424 10.708h4.265v4.265h-4.265zM18.424 23.505h4.265v4.265h-4.265zM18.424 36.301h4.265v4.265h-4.265z"/><path stroke="#3E3E3E" stroke-width=".147" d="M18.424 49.096h4.265v4.265h-4.265zM18.424 61.893h4.265v4.265h-4.265zM18.424 74.689h4.265v4.265h-4.265zM18.424 87.485h4.265v4.265h-4.265zM1.363 2.178h4.265v4.265H1.363zM1.363 14.974h4.265v4.265H1.363zM1.363 27.77h4.265v4.265H1.363zM1.363 40.566h4.265v4.265H1.363zM1.363 53.362h4.265v4.265H1.363zM1.363 66.158h4.265v4.265H1.363zM1.363 78.954h4.265v4.265H1.363zM1.363 6.443h4.265v4.265H1.363zM1.363 19.239h4.265v4.265H1.363zM1.363 32.035h4.265V36.3H1.363zM1.363 44.831h4.265v4.265H1.363zM1.363 57.627h4.265v4.265H1.363zM1.363 70.424h4.265v4.265H1.363zM1.363 83.219h4.265v4.265H1.363zM1.363-2.088h4.265v4.265H1.363zM1.363 10.708h4.265v4.265H1.363zM1.363 23.505h4.265v4.265H1.363zM1.363 36.301h4.265v4.265H1.363z"/><path stroke="#3E3E3E" stroke-width=".147" d="M1.363 49.096h4.265v4.265H1.363zM1.363 61.893h4.265v4.265H1.363zM1.363 74.689h4.265v4.265H1.363zM1.363 87.485h4.265v4.265H1.363zM39.751 2.178h4.265v4.265h-4.265zM39.751 14.974h4.265v4.265h-4.265zM39.751 27.77h4.265v4.265h-4.265zM39.751 40.566h4.265v4.265h-4.265zM39.751 53.362h4.265v4.265h-4.265zM39.751 66.158h4.265v4.265h-4.265zM39.751 78.954h4.265v4.265h-4.265zM39.751 6.443h4.265v4.265h-4.265zM39.751 19.239h4.265v4.265h-4.265zM39.751 32.035h4.265V36.3h-4.265zM39.751 44.831h4.265v4.265h-4.265zM39.751 57.627h4.265v4.265h-4.265zM39.751 70.424h4.265v4.265h-4.265zM39.751 83.219h4.265v4.265h-4.265zM39.751-2.088h4.265v4.265h-4.265zM39.751 10.708h4.265v4.265h-4.265zM39.751 23.505h4.265v4.265h-4.265zM39.751 36.301h4.265v4.265h-4.265z"/><path stroke="#3E3E3E" stroke-width=".147" d="M39.751 49.096h4.265v4.265h-4.265zM39.751 61.893h4.265v4.265h-4.265zM39.751 74.689h4.265v4.265h-4.265zM39.751 87.485h4.265v4.265h-4.265zM22.689 2.178h4.265v4.265h-4.265zM22.689 14.974h4.265v4.265h-4.265zM22.689 27.77h4.265v4.265h-4.265zM22.689 40.566h4.265v4.265h-4.265zM22.689 53.362h4.265v4.265h-4.265zM22.689 66.158h4.265v4.265h-4.265zM22.689 78.954h4.265v4.265h-4.265zM22.689 6.443h4.265v4.265h-4.265zM22.689 19.239h4.265v4.265h-4.265zM22.689 32.035h4.265V36.3h-4.265zM22.689 44.831h4.265v4.265h-4.265zM22.689 57.627h4.265v4.265h-4.265zM22.689 70.424h4.265v4.265h-4.265zM22.689 83.219h4.265v4.265h-4.265zM22.689-2.088h4.265v4.265h-4.265zM22.689 10.708h4.265v4.265h-4.265zM22.689 23.505h4.265v4.265h-4.265zM22.689 36.301h4.265v4.265h-4.265z"/><path stroke="#3E3E3E" stroke-width=".147" d="M22.689 49.096h4.265v4.265h-4.265zM22.689 61.893h4.265v4.265h-4.265zM22.689 74.689h4.265v4.265h-4.265zM22.689 87.485h4.265v4.265h-4.265zM5.628 2.178h4.265v4.265H5.628zM5.628 14.974h4.265v4.265H5.628zM5.628 27.77h4.265v4.265H5.628zM5.628 40.566h4.265v4.265H5.628zM5.628 53.362h4.265v4.265H5.628zM5.628 66.158h4.265v4.265H5.628zM5.628 78.954h4.265v4.265H5.628zM5.628 6.443h4.265v4.265H5.628zM5.628 19.239h4.265v4.265H5.628zM5.628 32.035h4.265V36.3H5.628zM5.628 44.831h4.265v4.265H5.628zM5.628 57.627h4.265v4.265H5.628zM5.628 70.424h4.265v4.265H5.628zM5.628 83.219h4.265v4.265H5.628zM5.628-2.088h4.265v4.265H5.628zM5.628 10.708h4.265v4.265H5.628zM5.628 23.505h4.265v4.265H5.628zM5.628 36.301h4.265v4.265H5.628z"/><path stroke="#3E3E3E" stroke-width=".147" d="M5.628 49.096h4.265v4.265H5.628zM5.628 61.893h4.265v4.265H5.628zM5.628 74.689h4.265v4.265H5.628zM5.628 87.485h4.265v4.265H5.628zM44.016 2.178h4.265v4.265h-4.265zM44.016 14.974h4.265v4.265h-4.265zM44.016 27.77h4.265v4.265h-4.265zM44.016 40.566h4.265v4.265h-4.265zM44.016 53.362h4.265v4.265h-4.265zM44.016 66.158h4.265v4.265h-4.265zM44.016 78.954h4.265v4.265h-4.265zM44.016 6.443h4.265v4.265h-4.265zM44.016 19.239h4.265v4.265h-4.265zM44.016 32.035h4.265V36.3h-4.265zM44.016 44.831h4.265v4.265h-4.265zM44.016 57.627h4.265v4.265h-4.265zM44.016 70.424h4.265v4.265h-4.265zM44.016 83.219h4.265v4.265h-4.265zM44.016-2.088h4.265v4.265h-4.265zM44.016 10.708h4.265v4.265h-4.265zM44.016 23.505h4.265v4.265h-4.265zM44.016 36.301h4.265v4.265h-4.265z"/><path stroke="#3E3E3E" stroke-width=".147" d="M44.016 49.096h4.265v4.265h-4.265zM44.016 61.893h4.265v4.265h-4.265zM44.016 74.689h4.265v4.265h-4.265zM44.016 87.485h4.265v4.265h-4.265zM26.955 2.178h4.265v4.265h-4.265zM26.955 14.974h4.265v4.265h-4.265zM26.955 27.77h4.265v4.265h-4.265zM26.955 40.566h4.265v4.265h-4.265zM26.955 53.362h4.265v4.265h-4.265zM26.955 66.158h4.265v4.265h-4.265zM26.955 78.954h4.265v4.265h-4.265zM26.955 6.443h4.265v4.265h-4.265zM26.955 19.239h4.265v4.265h-4.265zM26.955 32.035h4.265V36.3h-4.265zM26.955 44.831h4.265v4.265h-4.265zM26.955 57.627h4.265v4.265h-4.265zM26.955 70.424h4.265v4.265h-4.265zM26.955 83.219h4.265v4.265h-4.265zM26.955-2.088h4.265v4.265h-4.265zM26.955 10.708h4.265v4.265h-4.265zM26.955 23.505h4.265v4.265h-4.265zM26.955 36.301h4.265v4.265h-4.265z"/><path stroke="#3E3E3E" stroke-width=".147" d="M26.955 49.096h4.265v4.265h-4.265zM26.955 61.893h4.265v4.265h-4.265zM26.955 74.689h4.265v4.265h-4.265zM26.955 87.485h4.265v4.265h-4.265zM9.894 2.178h4.265v4.265H9.894zM9.894 14.974h4.265v4.265H9.894zM9.894 27.77h4.265v4.265H9.894zM9.894 40.566h4.265v4.265H9.894zM9.894 53.362h4.265v4.265H9.894zM9.894 66.158h4.265v4.265H9.894zM9.894 78.954h4.265v4.265H9.894zM9.894 6.443h4.265v4.265H9.894zM9.894 19.239h4.265v4.265H9.894zM9.894 32.035h4.265V36.3H9.894zM9.894 44.831h4.265v4.265H9.894zM9.894 57.627h4.265v4.265H9.894zM9.894 70.424h4.265v4.265H9.894zM9.894 83.219h4.265v4.265H9.894zM9.894-2.088h4.265v4.265H9.894zM9.894 10.708h4.265v4.265H9.894zM9.894 23.505h4.265v4.265H9.894zM9.894 36.301h4.265v4.265H9.894z"/><path stroke="#3E3E3E" stroke-width=".147" d="M9.894 49.096h4.265v4.265H9.894zM9.894 61.893h4.265v4.265H9.894zM9.894 74.689h4.265v4.265H9.894zM9.894 87.485h4.265v4.265H9.894zM48.282 2.178h4.265v4.265h-4.265zM48.282 14.974h4.265v4.265h-4.265zM48.282 27.77h4.265v4.265h-4.265zM48.282 40.566h4.265v4.265h-4.265zM48.282 53.362h4.265v4.265h-4.265zM48.282 66.158h4.265v4.265h-4.265zM48.282 78.954h4.265v4.265h-4.265zM48.282 6.443h4.265v4.265h-4.265zM48.282 19.239h4.265v4.265h-4.265z"/><path fill="#252525" d="M48.282 32.035h4.265V36.3h-4.265z"/><path stroke="#3E3E3E" stroke-width=".147" d="M48.282 32.035h4.265V36.3h-4.265zM48.282 44.831h4.265v4.265h-4.265zM48.282 57.627h4.265v4.265h-4.265zM48.282 70.424h4.265v4.265h-4.265zM48.282 83.219h4.265v4.265h-4.265zM48.282-2.088h4.265v4.265h-4.265zM48.282 10.708h4.265v4.265h-4.265zM48.282 23.505h4.265v4.265h-4.265zM48.282 36.301h4.265v4.265h-4.265z"/><path stroke="#3E3E3E" stroke-width=".147" d="M48.282 49.096h4.265v4.265h-4.265zM48.282 61.893h4.265v4.265h-4.265zM48.282 74.689h4.265v4.265h-4.265zM48.282 87.485h4.265v4.265h-4.265zM31.221 2.178h4.265v4.265h-4.265zM31.221 14.974h4.265v4.265h-4.265zM31.221 27.77h4.265v4.265h-4.265zM31.221 40.566h4.265v4.265h-4.265zM31.221 53.362h4.265v4.265h-4.265zM31.221 66.158h4.265v4.265h-4.265zM31.221 78.954h4.265v4.265h-4.265zM31.221 6.443h4.265v4.265h-4.265zM31.221 19.239h4.265v4.265h-4.265z"/><path fill="#252525" d="M31.221 32.035h4.265V36.3h-4.265z"/><path stroke="#3E3E3E" stroke-width=".147" d="M31.221 32.035h4.265V36.3h-4.265zM31.221 44.831h4.265v4.265h-4.265zM31.221 57.627h4.265v4.265h-4.265zM31.221 70.424h4.265v4.265h-4.265zM31.221 83.219h4.265v4.265h-4.265zM31.221-2.088h4.265v4.265h-4.265zM31.221 10.708h4.265v4.265h-4.265zM31.221 23.505h4.265v4.265h-4.265zM31.221 36.301h4.265v4.265h-4.265z"/><path stroke="#3E3E3E" stroke-width=".147" d="M31.221 49.096h4.265v4.265h-4.265zM31.221 61.893h4.265v4.265h-4.265zM31.221 74.689h4.265v4.265h-4.265zM31.221 87.485h4.265v4.265h-4.265zM14.159 2.178h4.265v4.265h-4.265zM14.159 14.974h4.265v4.265h-4.265zM14.159 27.77h4.265v4.265h-4.265zM14.159 40.566h4.265v4.265h-4.265zM14.159 53.362h4.265v4.265h-4.265zM14.159 66.158h4.265v4.265h-4.265zM14.159 78.954h4.265v4.265h-4.265zM14.159 6.443h4.265v4.265h-4.265zM14.159 19.239h4.265v4.265h-4.265z"/><path fill="#252525" d="M14.159 32.035h4.265V36.3h-4.265z"/><path stroke="#3E3E3E" stroke-width=".147" d="M14.159 32.035h4.265V36.3h-4.265zM14.159 44.831h4.265v4.265h-4.265zM14.159 57.627h4.265v4.265h-4.265zM14.159 70.424h4.265v4.265h-4.265zM14.159 83.219h4.265v4.265h-4.265zM14.159-2.088h4.265v4.265h-4.265zM14.159 10.708h4.265v4.265h-4.265zM14.159 23.505h4.265v4.265h-4.265zM14.159 36.301h4.265v4.265h-4.265z"/><path stroke="#3E3E3E" stroke-width=".147" d="M14.159 49.096h4.265v4.265h-4.265zM14.159 61.893h4.265v4.265h-4.265zM14.159 74.689h4.265v4.265h-4.265zM14.159 87.485h4.265v4.265h-4.265zM-2.903 2.178h4.265v4.265h-4.265zM-2.903 14.974h4.265v4.265h-4.265zM-2.903 27.77h4.265v4.265h-4.265zM-2.903 40.566h4.265v4.265h-4.265zM-2.903 53.362h4.265v4.265h-4.265zM-2.903 66.158h4.265v4.265h-4.265zM-2.903 78.954h4.265v4.265h-4.265zM-2.903 6.443h4.265v4.265h-4.265zM-2.903 19.239h4.265v4.265h-4.265z"/><path fill="#252525" d="M-2.903 32.035h4.265V36.3h-4.265z"/><path stroke="#3E3E3E" stroke-width=".147" d="M-2.903 32.035h4.265V36.3h-4.265zM-2.903 44.831h4.265v4.265h-4.265zM-2.903 57.627h4.265v4.265h-4.265zM-2.903 70.424h4.265v4.265h-4.265zM-2.903 83.219h4.265v4.265h-4.265zM-2.903-2.088h4.265v4.265h-4.265zM-2.903 10.708h4.265v4.265h-4.265zM-2.903 23.505h4.265v4.265h-4.265zM-2.903 36.301h4.265v4.265h-4.265z"/><path stroke="#3E3E3E" stroke-width=".147" d="M-2.903 49.096h4.265v4.265h-4.265zM-2.903 61.893h4.265v4.265h-4.265zM-2.903 74.689h4.265v4.265h-4.265zM-2.903 87.485h4.265v4.265h-4.265zM52.547 2.178h4.265v4.265h-4.265zM52.547 14.974h4.265v4.265h-4.265zM52.547 27.77h4.265v4.265h-4.265zM52.547 40.566h4.265v4.265h-4.265zM52.547 53.362h4.265v4.265h-4.265zM52.547 66.158h4.265v4.265h-4.265zM52.547 78.954h4.265v4.265h-4.265zM52.547 6.443h4.265v4.265h-4.265zM52.547 19.239h4.265v4.265h-4.265zM52.547 32.035h4.265V36.3h-4.265zM52.547 44.831h4.265v4.265h-4.265zM52.547 57.627h4.265v4.265h-4.265zM52.547 70.424h4.265v4.265h-4.265zM52.547 83.219h4.265v4.265h-4.265zM52.547-2.088h4.265v4.265h-4.265zM52.547 10.708h4.265v4.265h-4.265zM52.547 23.505h4.265v4.265h-4.265zM52.547 36.301h4.265v4.265h-4.265z"/><path stroke="#3E3E3E" stroke-width=".147" d="M52.547 49.096h4.265v4.265h-4.265zM52.547 61.893h4.265v4.265h-4.265zM52.547 74.689h4.265v4.265h-4.265zM52.547 87.485h4.265v4.265h-4.265zM56.812 2.178h4.265v4.265h-4.265zM56.812 14.974h4.265v4.265h-4.265zM56.812 27.77h4.265v4.265h-4.265zM56.812 40.566h4.265v4.265h-4.265zM56.812 53.362h4.265v4.265h-4.265zM56.812 66.158h4.265v4.265h-4.265zM56.812 78.954h4.265v4.265h-4.265z"/><path fill="#252525" d="M56.812 6.443h4.265v4.265h-4.265z"/><path stroke="#3E3E3E" stroke-width=".147" d="M56.812 6.443h4.265v4.265h-4.265zM56.812 19.239h4.265v4.265h-4.265zM56.812 32.035h4.265V36.3h-4.265zM56.812 44.831h4.265v4.265h-4.265zM56.812 57.627h4.265v4.265h-4.265zM56.812 70.424h4.265v4.265h-4.265zM56.812 83.219h4.265v4.265h-4.265zM56.812-2.088h4.265v4.265h-4.265zM56.812 10.708h4.265v4.265h-4.265zM56.812 23.505h4.265v4.265h-4.265zM56.812 36.301h4.265v4.265h-4.265z"/><path stroke="#3E3E3E" stroke-width=".147" d="M56.812 49.096h4.265v4.265h-4.265zM56.812 61.893h4.265v4.265h-4.265zM56.812 74.689h4.265v4.265h-4.265zM56.812 87.485h4.265v4.265h-4.265zM61.078 2.178h4.265v4.265h-4.265zM61.078 14.974h4.265v4.265h-4.265zM61.078 27.77h4.265v4.265h-4.265zM61.078 40.566h4.265v4.265h-4.265zM61.078 53.362h4.265v4.265h-4.265zM61.078 66.158h4.265v4.265h-4.265zM61.078 78.954h4.265v4.265h-4.265zM61.078 6.443h4.265v4.265h-4.265zM61.078 19.239h4.265v4.265h-4.265zM61.078 32.035h4.265V36.3h-4.265zM61.078 44.831h4.265v4.265h-4.265zM61.078 57.627h4.265v4.265h-4.265zM61.078 70.424h4.265v4.265h-4.265zM61.078 83.219h4.265v4.265h-4.265zM61.078-2.088h4.265v4.265h-4.265z"/><path fill="#252525" d="M61.078 10.708h4.265v4.265h-4.265z"/><path stroke="#3E3E3E" stroke-width=".147" d="M61.078 10.708h4.265v4.265h-4.265zM61.078 23.505h4.265v4.265h-4.265zM61.078 36.301h4.265v4.265h-4.265zM61.078 49.096h4.265v4.265h-4.265zM61.078 61.893h4.265v4.265h-4.265zM61.078 74.689h4.265v4.265h-4.265zM61.078 87.485h4.265v4.265h-4.265zM65.343 2.178h4.265v4.265h-4.265z"/><path fill="#252525" d="M65.343 14.974h4.265v4.265h-4.265z"/><path stroke="#3E3E3E" stroke-width=".147" d="M65.343 14.974h4.265v4.265h-4.265zM65.343 27.77h4.265v4.265h-4.265zM65.343 40.566h4.265v4.265h-4.265zM65.343 53.362h4.265v4.265h-4.265zM65.343 66.158h4.265v4.265h-4.265zM65.343 78.954h4.265v4.265h-4.265zM65.343 6.443h4.265v4.265h-4.265zM65.343 19.239h4.265v4.265h-4.265zM65.343 32.035h4.265V36.3h-4.265zM65.343 44.831h4.265v4.265h-4.265zM65.343 57.627h4.265v4.265h-4.265zM65.343 70.424h4.265v4.265h-4.265zM65.343 83.219h4.265v4.265h-4.265zM65.343-2.088h4.265v4.265h-4.265zM65.343 10.708h4.265v4.265h-4.265zM65.343 23.505h4.265v4.265h-4.265zM65.343 36.301h4.265v4.265h-4.265z"/><path stroke="#3E3E3E" stroke-width=".147" d="M65.343 49.096h4.265v4.265h-4.265zM65.343 61.893h4.265v4.265h-4.265zM65.343 74.689h4.265v4.265h-4.265zM65.343 87.485h4.265v4.265h-4.265zM69.609 2.178h4.265v4.265h-4.265zM69.609 14.974h4.265v4.265h-4.265zM69.609 27.77h4.265v4.265h-4.265zM69.609 40.566h4.265v4.265h-4.265zM69.609 53.362h4.265v4.265h-4.265zM69.609 66.158h4.265v4.265h-4.265zM69.609 78.954h4.265v4.265h-4.265zM69.609 6.443h4.265v4.265h-4.265zM69.609 19.239h4.265v4.265h-4.265zM69.609 32.035h4.265V36.3h-4.265zM69.609 44.831h4.265v4.265h-4.265zM69.609 57.627h4.265v4.265h-4.265zM69.609 70.424h4.265v4.265h-4.265zM69.609 83.219h4.265v4.265h-4.265zM69.609-2.088h4.265v4.265h-4.265zM69.609 10.708h4.265v4.265h-4.265zM69.609 23.505h4.265v4.265h-4.265zM69.609 36.301h4.265v4.265h-4.265z"/><path stroke="#3E3E3E" stroke-width=".147" d="M69.609 49.096h4.265v4.265h-4.265zM69.609 61.893h4.265v4.265h-4.265zM69.609 74.689h4.265v4.265h-4.265zM69.609 87.485h4.265v4.265h-4.265zM73.874 2.178h4.265v4.265h-4.265zM73.874 14.974h4.265v4.265h-4.265zM73.874 27.77h4.265v4.265h-4.265zM73.874 40.566h4.265v4.265h-4.265zM73.874 53.362h4.265v4.265h-4.265zM73.874 66.158h4.265v4.265h-4.265zM73.874 78.954h4.265v4.265h-4.265zM73.874 6.443h4.265v4.265h-4.265zM73.874 19.239h4.265v4.265h-4.265zM73.874 32.035h4.265V36.3h-4.265zM73.874 44.831h4.265v4.265h-4.265zM73.874 57.627h4.265v4.265h-4.265zM73.874 70.424h4.265v4.265h-4.265zM73.874 83.219h4.265v4.265h-4.265zM73.874-2.088h4.265v4.265h-4.265zM73.874 10.708h4.265v4.265h-4.265zM73.874 23.505h4.265v4.265h-4.265zM73.874 36.301h4.265v4.265h-4.265z"/><path stroke="#3E3E3E" stroke-width=".147" d="M73.874 49.096h4.265v4.265h-4.265zM73.874 61.893h4.265v4.265h-4.265zM73.874 74.689h4.265v4.265h-4.265zM73.874 87.485h4.265v4.265h-4.265zM78.139 2.178h4.265v4.265h-4.265zM78.139 14.974h4.265v4.265h-4.265zM78.139 27.77h4.265v4.265h-4.265zM78.139 40.566h4.265v4.265h-4.265zM78.139 53.362h4.265v4.265h-4.265zM78.139 66.158h4.265v4.265h-4.265zM78.139 78.954h4.265v4.265h-4.265zM78.139 6.443h4.265v4.265h-4.265zM78.139 19.239h4.265v4.265h-4.265zM78.139 32.035h4.265V36.3h-4.265zM78.139 44.831h4.265v4.265h-4.265zM78.139 57.627h4.265v4.265h-4.265zM78.139 70.424h4.265v4.265h-4.265zM78.139 83.219h4.265v4.265h-4.265zM78.139-2.088h4.265v4.265h-4.265zM78.139 10.708h4.265v4.265h-4.265zM78.139 23.505h4.265v4.265h-4.265zM78.139 36.301h4.265v4.265h-4.265z"/><path stroke="#3E3E3E" stroke-width=".147" d="M78.139 49.096h4.265v4.265h-4.265z"/><path fill="#252525" d="M78.139 61.893h4.265v4.265h-4.265z"/><path stroke="#3E3E3E" stroke-width=".147" d="M78.139 61.893h4.265v4.265h-4.265zM78.139 74.689h4.265v4.265h-4.265zM78.139 87.485h4.265v4.265h-4.265zM82.405 2.178h4.265v4.265h-4.265zM82.405 14.974h4.265v4.265h-4.265zM82.405 27.77h4.265v4.265h-4.265zM82.405 40.566h4.265v4.265h-4.265zM82.405 53.362h4.265v4.265h-4.265zM82.405 66.158h4.265v4.265h-4.265zM82.405 78.954h4.265v4.265h-4.265zM82.405 6.443h4.265v4.265h-4.265zM82.405 19.239h4.265v4.265h-4.265z"/><path fill="#252525" d="M82.405 32.035h4.265V36.3h-4.265z"/><path stroke="#3E3E3E" stroke-width=".147" d="M82.405 32.035h4.265V36.3h-4.265zM82.405 44.831h4.265v4.265h-4.265zM82.405 57.627h4.265v4.265h-4.265zM82.405 70.424h4.265v4.265h-4.265zM82.405 83.219h4.265v4.265h-4.265zM82.405-2.088h4.265v4.265h-4.265zM82.405 10.708h4.265v4.265h-4.265zM82.405 23.505h4.265v4.265h-4.265zM82.405 36.301h4.265v4.265h-4.265z"/><path stroke="#3E3E3E" stroke-width=".147" d="M82.405 49.096h4.265v4.265h-4.265zM82.405 61.893h4.265v4.265h-4.265zM82.405 74.689h4.265v4.265h-4.265zM82.405 87.485h4.265v4.265h-4.265zM86.67 2.178h4.265v4.265H86.67zM86.67 14.974h4.265v4.265H86.67zM86.67 27.77h4.265v4.265H86.67zM86.67 40.566h4.265v4.265H86.67zM86.67 53.362h4.265v4.265H86.67zM86.67 66.158h4.265v4.265H86.67zM86.67 78.954h4.265v4.265H86.67zM86.67 6.443h4.265v4.265H86.67zM86.67 19.239h4.265v4.265H86.67zM86.67 32.035h4.265V36.3H86.67zM86.67 44.831h4.265v4.265H86.67zM86.67 57.627h4.265v4.265H86.67zM86.67 70.424h4.265v4.265H86.67zM86.67 83.219h4.265v4.265H86.67zM86.67-2.088h4.265v4.265H86.67zM86.67 10.708h4.265v4.265H86.67zM86.67 23.505h4.265v4.265H86.67zM86.67 36.301h4.265v4.265H86.67z"/><path stroke="#3E3E3E" stroke-width=".147" d="M86.67 49.096h4.265v4.265H86.67zM86.67 61.893h4.265v4.265H86.67zM86.67 74.689h4.265v4.265H86.67zM86.67 87.485h4.265v4.265H86.67zM90.935 2.178H95.2v4.265h-4.265zM90.935 14.974H95.2v4.265h-4.265zM90.935 27.77H95.2v4.265h-4.265zM90.935 40.566H95.2v4.265h-4.265zM90.935 53.362H95.2v4.265h-4.265zM90.935 66.158H95.2v4.265h-4.265zM90.935 78.954H95.2v4.265h-4.265zM90.935 6.443H95.2v4.265h-4.265zM90.935 19.239H95.2v4.265h-4.265zM90.935 32.035H95.2V36.3h-4.265zM90.935 44.831H95.2v4.265h-4.265zM90.935 57.627H95.2v4.265h-4.265zM90.935 70.424H95.2v4.265h-4.265zM90.935 83.219H95.2v4.265h-4.265zM90.935-2.088H95.2v4.265h-4.265zM90.935 10.708H95.2v4.265h-4.265zM90.935 23.505H95.2v4.265h-4.265zM90.935 36.301H95.2v4.265h-4.265z"/><path stroke="#3E3E3E" stroke-width=".147" d="M90.935 49.096H95.2v4.265h-4.265zM90.935 61.893H95.2v4.265h-4.265zM90.935 74.689H95.2v4.265h-4.265zM90.935 87.485H95.2v4.265h-4.265zM95.201 2.178h4.265v4.265h-4.265zM95.201 14.974h4.265v4.265h-4.265zM95.201 27.77h4.265v4.265h-4.265zM95.201 40.566h4.265v4.265h-4.265zM95.201 53.362h4.265v4.265h-4.265zM95.201 66.158h4.265v4.265h-4.265zM95.201 78.954h4.265v4.265h-4.265z"/><path fill="#252525" d="M95.201 6.443h4.265v4.265h-4.265z"/><path stroke="#3E3E3E" stroke-width=".147" d="M95.201 6.443h4.265v4.265h-4.265zM95.201 19.239h4.265v4.265h-4.265zM95.201 32.035h4.265V36.3h-4.265zM95.201 44.831h4.265v4.265h-4.265zM95.201 57.627h4.265v4.265h-4.265zM95.201 70.424h4.265v4.265h-4.265zM95.201 83.219h4.265v4.265h-4.265zM95.201-2.088h4.265v4.265h-4.265zM95.201 10.708h4.265v4.265h-4.265z"/><path fill="#252525" d="M95.201 23.505h4.265v4.265h-4.265z"/><path stroke="#3E3E3E" stroke-width=".147" d="M95.201 23.505h4.265v4.265h-4.265zM95.201 36.301h4.265v4.265h-4.265zM95.201 49.096h4.265v4.265h-4.265zM95.201 61.893h4.265v4.265h-4.265zM95.201 74.689h4.265v4.265h-4.265zM95.201 87.485h4.265v4.265h-4.265z"/><circle cx="-44.232" cy="89.103" r="91.705" fill="url(#d)" style="mix-blend-mode:soft-light" filter="url(#c)"/><circle cx="89.317" cy="75.571" r="46.992" fill="#0A0A0A" filter="url(#e)"/><circle cx="36.957" cy="-37.387" r="46.992" fill="#0A0A0A" style="mix-blend-mode:hard-light" filter="url(#f)"/><circle cx="157.857" cy="-36.357" r="91.705" fill="url(#h)" fill-opacity=".6" style="mix-blend-mode:soft-light" filter="url(#g)"/><path d="M43.568 24.938a18.954 18.954 0 0 0-2.174 4h-9.331a8 8 0 0 0-8 8v28a8 8 0 0 0 8 8h28a8 8 0 0 0 8-8V52.674a19.052 19.052 0 0 0 4-2.882v15.145c0 6.628-5.373 12-12 12h-28c-6.628 0-12-5.372-12-12v-28c0-6.627 5.372-12 12-12h11.505z" fill="#FCFCFC"/><path d="M72.813 32.348a19.276 19.276 0 0 1-6.068-4.093 19.267 19.267 0 0 1-4.093-6.067 17.99 17.99 0 0 1-.925-2.73.686.686 0 0 0-1.33 0 18.024 18.024 0 0 1-.924 2.73 19.267 19.267 0 0 1-4.093 6.067 19.267 19.267 0 0 1-6.068 4.093c-.885.382-1.796.69-2.73.925a.687.687 0 0 0 0 1.33 18.01 18.01 0 0 1 2.73.924 19.276 19.276 0 0 1 6.068 4.093 19.254 19.254 0 0 1 4.093 6.068c.382.885.69 1.796.924 2.73a.686.686 0 0 0 1.33 0c.236-.934.543-1.844.925-2.73a19.276 19.276 0 0 1 4.093-6.068 19.266 19.266 0 0 1 6.067-4.093 17.976 17.976 0 0 1 2.73-.925.686.686 0 0 0 0-1.33 18.005 18.005 0 0 1-2.73-.924z" fill="#FCFCFC"/></g></g><defs><filter id="c" x="-180.65" y="-47.315" width="272.836" height="272.836" filterUnits="userSpaceOnUse" color-interpolation-filters="sRGB"><feFlood flood-opacity="0" result="BackgroundImageFix"/><feBlend in="SourceGraphic" in2="BackgroundImageFix" result="shape"/><feGaussianBlur stdDeviation="22.356" result="effect1_foregroundBlur_1630_27213"/></filter><filter id="e" x="-2.388" y="-16.134" width="183.41" height="183.41" filterUnits="userSpaceOnUse" color-interpolation-filters="sRGB"><feFlood flood-opacity="0" result="BackgroundImageFix"/><feBlend in="SourceGraphic" in2="BackgroundImageFix" result="shape"/><feGaussianBlur stdDeviation="22.356" result="effect1_foregroundBlur_1630_27213"/></filter><filter id="f" x="-54.749" y="-129.092" width="183.41" height="183.41" filterUnits="userSpaceOnUse" color-interpolation-filters="sRGB"><feFlood flood-opacity="0" result="BackgroundImageFix"/><feBlend in="SourceGraphic" in2="BackgroundImageFix" result="shape"/><feGaussianBlur stdDeviation="22.356" result="effect1_foregroundBlur_1630_27213"/></filter><filter id="g" x="21.439" y="-172.775" width="272.836" height="272.836" filterUnits="userSpaceOnUse" color-interpolation-filters="sRGB"><feFlood flood-opacity="0" result="BackgroundImageFix"/><feBlend in="SourceGraphic" in2="BackgroundImageFix" result="shape"/><feGaussianBlur stdDeviation="22.356" result="effect1_foregroundBlur_1630_27213"/></filter><linearGradient id="d" x1="-116.743" y1="96.089" x2="17.836" y2="22.99" gradientUnits="userSpaceOnUse"><stop stop-color="#0A0A0A"/><stop offset="1" stop-color="#191919"/></linearGradient><linearGradient id="h" x1="85.346" y1="-29.371" x2="219.926" y2="-102.47" gradientUnits="userSpaceOnUse"><stop stop-color="#0A0A0A"/><stop offset="1" stop-color="#191919"/></linearGradient><clipPath id="a"><path fill="#fff" d="M0 0h96v96H0z"/></clipPath><clipPath id="b"><path fill="#fff" d="M0 0h96v96H0z"/></clipPath></defs></svg>