<?xml version="1.0" encoding="utf-8"?>
<!-- Generator: Adobe Illustrator 24.2.0, SVG Export Plug-In . SVG Version: 6.00 Build 0)  -->
<svg version="1.1" id="图层_1" xmlns="http://www.w3.org/2000/svg" xmlns:xlink="http://www.w3.org/1999/xlink" x="0px" y="0px"
	 viewBox="0 0 100 100" style="enable-background:new 0 0 100 100;" xml:space="preserve">
<style type="text/css">
	.st0{fill-rule:evenodd;clip-rule:evenodd;fill:#1A55A0;}
	.st1{fill-rule:evenodd;clip-rule:evenodd;fill:#FFFFFF;stroke:#FFFFFF;stroke-width:5;stroke-linejoin:round;}
	
		.st2{fill-rule:evenodd;clip-rule:evenodd;fill:#1154A5;stroke:#FFFFFF;stroke-width:4;stroke-linecap:round;stroke-linejoin:round;stroke-miterlimit:10;}
	.st3{fill-rule:evenodd;clip-rule:evenodd;fill:#1154A5;}
	.st4{fill-rule:evenodd;clip-rule:evenodd;fill:#FFFFFF;stroke:#1154A5;stroke-miterlimit:10;}
</style>
<rect y="0" class="st0" width="100" height="100"/>
<path id="Shape_10_copy_1_" class="st1" d="M78.7,45.9l-0.6,5.4c0.3,1.3-0.5,3,0.1,3.6c1.6,1.7,0,4,1.5,5.6c0,0.1,0,0.2-0.1,0.2
	c-1.4,1.5,0.2,0.9,0.8,1c-0.2,0.7-0.7,1.2-0.9,1.9c-0.4,1.2-1.1,2.7-2.5,3.3c-0.7,0.3,0,0.5-0.1,0.7c-0.1,0.2,0.7,0.6-0.1,0.7
	c-0.8,0.1-0.7,0.5-0.4,1c0.3,0.5-0.1,0.7-0.3,1.1c-0.6,1.1-1.8,1.9-3.1,2c-0.4,0.1-0.8,0.4-0.9,0.8c-0.6,1.8-3.3,3.3-4.9,3.1
	c0.1,0.6,1.1,0.6,1.2,1.3c-0.7-0.3-0.8-0.2-1.4,0.3c-0.1,0.1-0.4,0.2-0.5,0c0,0,0,0,0,0c-0.2-0.3-0.6-0.5-1-0.5
	c-0.1,0-0.1,0-0.1,0.1c0,0.1,0,0.1,0.1,0.2c1.1,0.3-0.2,2.2-0.4,2c-1.3-0.9-4.9-2.4-6.4-1.6c-1.4,0.8,0.4,1.5-0.9,1.9
	c-0.9,0.2-1.9-0.2-2.7,0.4c-1.1,0.8-2.4,1.1-3.6,1.9c-0.7,0.1-1.4,0-2.1-0.1c0.2-1.6-1-1.3-1.9-1.3c-0.6,0-1.3-0.1-1-0.8
	c0.3-0.9,0.3-1.4-0.7-1.4c-0.8-0.1-1.6,0.4-1.7,1.3c0,0.1,0,0.1,0,0.2c0,1.1-2.6-1.7-4.3-1.3c-0.3-1.4-0.9-0.7-1.6-0.3
	c-0.7,0.5-1.6,0.3-2.1-0.4c-0.1-0.1-0.1-0.2-0.1-0.3c-0.4-0.7-1.3-1-2-0.6c0,0-0.1,0-0.1,0.1c-0.8,0.4-3.6-1.1-4.5-1.1
	c-0.4,0-3.4-2.9-3.4-2.9s-1.1-0.4-0.8-0.6c1.1-0.9,1.2-1.5-0.3-1.9c-0.2,0-0.4-0.1-0.5-0.2c-0.1-1.3-1.1-1.9-2-2.3
	c-1-0.4-1.7-1.2-2.1-2.2c-0.2-0.4-1.4-2.3-1.4-3.1c0-1.1,0.2-2.2-0.6-3.2c-0.4-0.5-0.5-1.2-0.2-1.8c0.3-0.3,0.3-0.9-0.1-1.2
	c0,0-0.1,0-0.1-0.1l-0.4-0.4l1-2.2l0.3-1.6l0.2-1.3l-0.5-1.5l-0.5-2.7l0-0.4l0-0.8l1.1,0l0-1l0.6-0.2L19.7,44l0-0.7l0.6-0.3
	l-0.1-1.2l0-0.8l-0.1-0.4l0.6-0.3l1-0.9l0.9-0.6l0.5-0.2l0.5-0.2l0.1-0.6l0.8-0.3l0-0.9l-1,0.1l0.2-0.5l0.4-0.2l0.3-0.5l0.8-0.3
	l0.4-0.7l0.3-1l0.8-0.1l0.2-0.8l0.9,0l0.3-0.6l0.2-0.9l0.9-0.1l-0.3-0.9l0.3-0.6l0.6-0.8l0.4-0.1c0.2-0.1,0.4-0.2,0.6-0.3
	c0,0,0-0.1,0-0.1L28.9,27l1.6-0.3l1.7,0.8L31,25.9l1.9,0.4l-1.4-3.1l2,1.8l-0.6-2.8l3.1,1.4l1.2,0l0-0.7l2.5,0l1,0.2l0-0.5l7.7,0.1
	l0-0.7l1.6,0.4l0.3-0.4l2.1,0l1.4,0.6l2.5,0.5l3.1,0.4l1.2,0.7l1.3,0.2l0,0.4l1.4,0l0,0.9l1.7,0l0.8,0.5l0.9,0.9l0.8,0.7l1.7,0.4
	l-0.5,1l1.2-0.7l0,1.2l0.6,0l0,2l1.2,0.6l0,1.2l1.5-0.3l0,0.7c0,0,1.5-1.2,2-0.9c0.1,0.3,0.1,0.6,0,0.9l1.2,0.4l-1.6,0.4l1.1,1.2
	l-1.6,0l-0.6,0l1.6,1.7l0.7,0.6l0.2,0.7l-0.5,0.6c0,0,2.1,1.2,2.2,1.7c0.2,0.5-0.6,1.2-0.6,1.2l-0.2,0.7l0.8,0.4l0.4,0.4l-1.1,1
	l1.7,1L78.7,45.9z"/>
<path class="st2" d="M65,26.7l2.6,0.1c0.7-0.5,1.5-0.8,2.2-1.1c0.9-0.1,3,1,3,1l0.9-0.8c0.4,0.4,1,0.4,1.4,0c0,0,0,0,0,0
	c0.6-0.7,0.7,0.8,0.7,0.8l1.2,0l1.3-0.8l0,1.4c0.3-0.1,0.6-0.1,0.9,0c0.2,0.2-0.2,1,0,1.2c0.3,0.3,1.5,0,1.5,0s-1.3,0.3-1.2,0.7
	c0.2,0.7,1.8,1.3,1.8,1.3l-0.5,0.8l1.8,0.7l1.3,0l-0.5,3.5l1.8,1.5l-1.6,0.9l-0.5,0.6l1.6,1.3l0.7,0.3l-1.6,1.5l-0.4,1.7l-1.1,0
	l1.8,1.3l-2.9,0c0,0,1.8,1.3,1.6,1.8c-0.2,0.4-1.5,0-2,0c-0.3-0.1-0.6-0.1-0.9,0c-0.2,0.2-0.1,0.8-0.3,1c-0.3,0.2-0.6,0.2-1,0.2
	 M20.4,41.1c-0.2-0.3,1-0.9,0.8-1.3C21,39.5,20,40,19.6,40c-0.3-0.1-1.3-0.2-1.3-0.5c0-0.3,0.9-0.5,0.8-0.7
	c-0.1-0.4-1.2-0.3-1.5-0.4c-0.2-0.1-0.4-0.2-0.6-0.4c-0.2-0.2-0.2-0.7-0.3-0.9c-0.2-0.2-0.4-0.3-0.6-0.5c-0.5-0.2-1.2-1-0.8-1
	c0.5-0.1,1-0.4,1.3-0.8c-0.1-0.4-0.3-0.9-0.6-1.2l1.2-0.4L16.1,32l2-1l-1.6-0.7L15,29.2l1.8-0.9l-1.9-0.7l1.5-1.2l0.7,0l0.3-1.6
	l1.3,0L18,23.1l0.1-1.4c0.5,0.7,1,1.2,1.6,1.7c0.3,0.1,1.2,0.4,1.3,0.1c0.2-0.4-1.5-1-1.3-1.4c0.3-0.5,2.1,0.7,2.1,0.7
	c0.1,0.2,0.3,0.3,0.5,0.4c0.4-0.5-2.2-1-1.9-1.5c0.3-0.4,1.9,0.8,1.9,0.8l0.5-0.8l0-1.4l1.6,1l-0.7-1.7l1.7,1.7l0.8-0.1l0-0.3
	l0.8-0.9l1.1-0.4l0,1.6l0.9,0.9l0.9,1.3c0,0,1.1-0.2,1,0c0.1,0.5,0.3,1,0.6,1.5l0.8-1.1l1.3-0.5C33.6,23.2,21.5,42.9,20.4,41.1z"/>
<path class="st3" d="M65,26.7l2.6,0.1c0.7-0.5,1.5-0.8,2.2-1.1c0.9-0.1,3,1,3,1l0.9-0.8c0.4,0.4,1,0.4,1.4,0c0,0,0,0,0,0
	c0.6-0.7,0.7,0.8,0.7,0.8l1.2,0l1.3-0.8l0,1.4c0.3-0.1,0.6-0.1,0.9,0c0.2,0.2-0.2,1,0,1.2c0.3,0.3,1.5,0,1.5,0s-1.3,0.3-1.2,0.7
	c0.2,0.7,1.8,1.3,1.8,1.3l-0.5,0.8l1.8,0.7l1.3,0l-0.5,3.5l1.8,1.5l-1.6,0.9l-0.5,0.6l1.6,1.3l0.7,0.3l-1.6,1.5l-0.4,1.7l-1.1,0
	l1.8,1.3l-2.9,0c0,0,1.8,1.3,1.6,1.8c-0.2,0.4-1.5,0-2,0c-0.3-0.1-0.6-0.1-0.9,0c-0.2,0.2-0.1,0.8-0.3,1c-0.3,0.2-0.6,0.2-1,0.2
	 M20.4,41.1c-0.2-0.3,1-0.9,0.8-1.3C21,39.5,20,40,19.6,40c-0.3-0.1-1.3-0.2-1.3-0.5c0-0.3,0.9-0.5,0.8-0.7
	c-0.1-0.4-1.2-0.3-1.5-0.4c-0.2-0.1-0.4-0.2-0.6-0.4c-0.2-0.2-0.2-0.7-0.3-0.9c-0.2-0.2-0.4-0.3-0.6-0.5c-0.5-0.2-1.2-1-0.8-1
	c0.5-0.1,1-0.4,1.3-0.8c-0.1-0.4-0.3-0.9-0.6-1.2l1.2-0.4L16.1,32l2-1l-1.6-0.7L15,29.2l1.8-0.9l-1.9-0.7l1.5-1.2l0.7,0l0.3-1.6
	l1.3,0L18,23.1l0.1-1.4c0.5,0.7,1,1.2,1.6,1.7c0.3,0.1,1.2,0.4,1.3,0.1c0.2-0.4-1.5-1-1.3-1.4c0.3-0.5,2.1,0.7,2.1,0.7
	c0.1,0.2,0.3,0.3,0.5,0.4c0.4-0.5-2.2-1-1.9-1.5c0.3-0.4,1.9,0.8,1.9,0.8l0.5-0.8l0-1.4l1.6,1l-0.7-1.7l1.7,1.7l0.8-0.1l0-0.3
	l0.8-0.9l1.1-0.4l0,1.6l0.9,0.9l0.9,1.3c0,0,1.1-0.2,1,0c0.1,0.5,0.3,1,0.6,1.5l0.8-1.1l1.3-0.5C33.6,23.2,21.5,42.9,20.4,41.1z"/>
<path class="st4" d="M78.7,45.9l-0.6,5.4c0.3,1.3-0.5,3,0.1,3.6c1.6,1.7,0,4,1.5,5.6c0,0.1,0,0.2-0.1,0.2c-1.4,1.5,0.2,0.9,0.8,1
	c-0.2,0.7-0.7,1.2-0.9,1.9c-0.4,1.2-1.1,2.7-2.5,3.3c-0.7,0.3,0,0.5-0.1,0.7c-0.1,0.2,0.7,0.6-0.1,0.7c-0.8,0.1-0.7,0.5-0.4,1
	c0.3,0.5-0.1,0.7-0.3,1.1c-0.6,1.1-1.8,1.9-3.1,2c-0.4,0.1-0.8,0.4-0.9,0.8c-0.6,1.8-3.3,3.3-4.9,3.1c0.1,0.6,1.1,0.6,1.2,1.3
	c-0.7-0.3-0.8-0.2-1.4,0.3c-0.1,0.1-0.4,0.2-0.5,0c0,0,0,0,0,0c-0.2-0.3-0.6-0.5-1-0.5c-0.1,0-0.1,0-0.1,0.1c0,0.1,0,0.1,0.1,0.2
	c1.1,0.3-0.2,2.2-0.4,2c-1.3-0.9-4.9-2.4-6.4-1.6c-1.4,0.8,0.4,1.5-0.9,1.9c-0.9,0.2-1.9-0.2-2.7,0.4c-1.1,0.8-2.4,1.1-3.6,1.9
	c-0.7,0.1-1.4,0-2.1-0.1c0.2-1.6-1-1.3-1.9-1.3c-0.6,0-1.3-0.1-1-0.8c0.3-0.9,0.3-1.4-0.7-1.4c-0.8-0.1-1.6,0.4-1.7,1.3
	c0,0.1,0,0.1,0,0.2c0,1.1-2.6-1.7-4.3-1.3c-0.3-1.4-0.9-0.7-1.6-0.3c-0.7,0.5-1.6,0.3-2.1-0.4c-0.1-0.1-0.1-0.2-0.1-0.3
	c-0.4-0.7-1.3-1-2-0.6c0,0-0.1,0-0.1,0.1c-0.8,0.4-3.6-1.1-4.5-1.1c-0.4,0-3.4-2.9-3.4-2.9s-1.1-0.4-0.8-0.6
	c1.1-0.9,1.2-1.5-0.3-1.9c-0.2,0-0.4-0.1-0.5-0.2c-0.1-1.3-1.1-1.9-2-2.3c-1-0.4-1.7-1.2-2.1-2.2c-0.2-0.4-1.4-2.3-1.4-3.1
	c0-1.1,0.2-2.2-0.6-3.2c-0.4-0.5-0.5-1.2-0.2-1.8c0.3-0.3,0.3-0.9-0.1-1.2c0,0-0.1,0-0.1-0.1l-0.4-0.4l1-2.2l0.3-1.6l0.2-1.3
	l-0.5-1.5l-0.5-2.7l0-0.4l0-0.8l1.1,0l0-1l0.6-0.2L19.7,44l0-0.7l0.6-0.3l-0.1-1.2l0-0.8l-0.1-0.4l0.6-0.3l1-0.9l0.9-0.6l0.5-0.2
	l0.5-0.2l0.1-0.6l0.8-0.3l0-0.9l-1,0.1l0.2-0.5l0.4-0.2l0.3-0.5l0.8-0.3l0.4-0.7l0.3-1l0.8-0.1l0.2-0.8l0.9,0l0.3-0.6l0.2-0.9
	l0.9-0.1l-0.3-0.9l0.3-0.6l0.6-0.8l0.4-0.1c0.2-0.1,0.4-0.2,0.6-0.3c0,0,0-0.1,0-0.1L28.9,27l1.6-0.3l1.7,0.8L31,25.9l1.9,0.4
	l-1.4-3.1l2,1.8l-0.6-2.8l3.1,1.4l1.2,0l0-0.7l2.5,0l1,0.2l0-0.5l7.7,0.1l0-0.7l1.6,0.4l0.3-0.4l2.1,0l1.4,0.6l2.5,0.5l3.1,0.4
	l1.2,0.7l1.3,0.2l0,0.4l1.4,0l0,0.9l1.7,0l0.8,0.5l0.9,0.9l0.8,0.7l1.7,0.4l-0.5,1l1.2-0.7l0,1.2l0.6,0l0,2l1.2,0.6l0,1.2l1.5-0.3
	l0,0.7c0,0,1.5-1.2,2-0.9c0.1,0.3,0.1,0.6,0,0.9l1.2,0.4l-1.6,0.4l1.1,1.2l-1.6,0l-0.6,0l1.6,1.7l0.7,0.6l0.2,0.7l-0.5,0.6
	c0,0,2.1,1.2,2.2,1.7c0.2,0.5-0.6,1.2-0.6,1.2l-0.2,0.7l0.8,0.4l0.4,0.4l-1.1,1l1.7,1L78.7,45.9z"/>
<path class="st3" d="M56.5,51l1-0.6l0-1.1l0.7-0.7l0-1l1.1-1.1l1.4,0c0,0,1-1.6,1.5-1.4c0.3,0.1-0.2,1,0,1.2
	c0.3,0.3,1.4,0.1,1.8,0.3c0.4,0.4,0.8,0.8,1,1.3c0.2,0.4,0.5,1.2,0.8,1.6c0.3,0.2,0.5,0.5,0.8,0.7c0.2,0.5-0.3,1.9,0.1,2.2
	c0.3,0.2,0.7,0.2,1.1,0.1c0,0,0.3,1-0.2,1c-0.4,0,0.5,1.4,0.7,1.8c0.1,0.7,0.1,1.4,0,2.2c-0.1,0.5-0.7,1.3-0.6,1.7
	c0,0.2,0.6,0.5,0.7,0.8c-0.1,0.5-0.2,0.9-0.4,1.3c-0.1,0.3,0.2,1.1,0,1.4c-0.3,0.5-1.7,0.7-2.2,1c-0.3,0.3-0.6,0.6-1,0.9
	c-0.6,0.1-1.2,0.1-1.8,0l-1.9,0l0.1-1.3l-1.9-1.6l0.3-1.5L59.2,59l-1.2-1.1l-1.3-1.7l-0.5-1.4l0.5-3.4L56.5,51z M59.1,53.2
	c-0.2,0-0.4,0.2-0.4,0.4s0.2,0.4,0.4,0.4c0.2,0,0.4-0.2,0.4-0.4C59.4,53.3,59.3,53.2,59.1,53.2L59.1,53.2z M58.6,55.7
	c0,0,1.5,0,1.8-0.1c0.7-0.1,1.3-0.5,1.5-1.1c0-0.4,0-0.7-0.2-1.1c-0.1,0.5-0.3,0.9-0.6,1.3C60.3,55.1,59.4,55.5,58.6,55.7z M31.7,60
	l-1.1-0.4l-0.9-1.4l-1.4-1.4l0.4-0.5l-0.5-3.8l0.4-0.5l0-1.8l0.5-0.7l0-0.8l0.7-1.4l0.9-0.3l0.8-0.2l0.8-0.3l2.4-0.1l0.4-1.6
	c0,0-0.4-2.7,0.3-3c0.4-0.2,0.8,0.9,1.2,1c0.4-0.1,0.9-0.3,1.3-0.5c0.2,0,0.6,0.1,0.8,0.1c0.4-0.1,0.8-0.3,1.1-0.6
	c0.3-0.2,0.7-1.3,1.1-1.2c0.4,0,0.4,1.1,0.7,1.3c0.2,0.1,0.6-0.1,0.8,0c0.2,0.3,0.3,0.7,0.3,1.1c0.2,0.5,1.3,1.4,1,1.8
	c-0.1,0.2-0.9-0.2-1.1,0c-0.3,0.3,0,1.3,0,1.7c0,0.3,0,1,0,1.3c0.2,0.5,0.4,1.1,0.5,1.6c-0.1,0.6-1,1.5-1.3,2
	c-0.2,0.6-0.6,1.1-1,1.5c-0.2,0.1-0.8-0.2-1,0c0,0.3,0,0.6,0,0.9c-0.1,0.4-0.3,0.7-0.5,1c-0.3,0.2-0.9-0.1-1.2,0
	c-0.8,0.4-1.6,2.2-2.2,2.8c-0.2,0.3-1.1,1-1.1,1l-1,0l-1.4,1.1L31.7,60z M38.6,50.1c-0.2,0-0.4,0.2-0.4,0.4s0.2,0.4,0.4,0.4
	c0.2,0,0.4-0.2,0.4-0.4C39,50.3,38.9,50.1,38.6,50.1z M37,50.3c-0.1,0-0.2,0.1-0.2,0.2c0,0.1,0.1,0.2,0.2,0.2c0.1,0,0.2-0.1,0.2-0.2
	C37.2,50.4,37.1,50.3,37,50.3C37,50.3,37,50.3,37,50.3L37,50.3z M35.7,52.1c0.2,0.4,0.7,0.7,1.1,0.6c0,0,1.5-0.2,1.3-0.2
	c-0.7,0-1.3-0.2-1.8-0.6c-0.7-0.6-0.2-2-0.2-2S35.3,51.4,35.7,52.1L35.7,52.1z M46.1,69.6c-0.3,0.2,0.4,1.3-0.7,0.7
	c-0.3-0.2-0.9,0.3-1.4,0.4c0-1.9-1-0.3-1.5-0.3c-0.1,0-0.3,0-0.4-0.1c-0.9-1.1-2.4-1.2-3.8-2.2c2.4,3.6,12.1,5.2,14.9,2.7
	c-2.6,0.2-5.2,0.7-6.9-2.4C46.3,68.8,46.2,69.2,46.1,69.6L46.1,69.6z M52,63.2c0,0.9-0.5,1.8-1.3,2.1c-0.7,0.4-1.5,0.7-2.3,1
	c-1.1,0.4-2.2,0.9-3.1-0.4c-0.4-0.6-1.3-0.7-1.9-1.2c-1.3-1-1.7-2.3-1-3.7c0.4-0.7,0.9-1.2,1.6-0.9c1.6,0.6,3.3,0.8,5,0.8
	C50.8,61,52,61.9,52,63.2z M45.1,61.6c0.4,0,0.4,1.1,0.8,0.5c0.4-0.5-0.4-1-0.8-1.1c-0.7-0.1-1.6-1-2.3,0.2
	C43.6,61.4,44.3,61.6,45.1,61.6L45.1,61.6z M48.7,62.4c0,0.1,0,0.3,0.1,0.4c0.4,0.2,0.8,0.1,1-0.3c0-0.1,0.1-0.1,0.1-0.2
	C49.5,62.2,49.1,62.2,48.7,62.4L48.7,62.4z M43.1,63.1c0.2,0.4,0.8,0.6,1.2,0.4c0.1,0,0.1-0.1,0.2-0.1
	C43.9,63.4,43.7,62.8,43.1,63.1L43.1,63.1z"/>
</svg>
